<svg width="277" height="302" viewBox="0 0 277 302" fill="none" xmlns="http://www.w3.org/2000/svg">
<path d="M40.2112 205.305L42.2927 209.411L46.8409 210.121L43.5791 213.37L44.3086 217.915L40.2112 215.817L36.1139 217.915L36.8433 213.37L33.5815 210.121L38.1298 209.411L40.2112 205.305Z" fill="#EBBE4A"/>
<path d="M57.3703 205.305L59.4518 209.411L64 210.121L60.7382 213.37L61.4677 217.915L57.3703 215.817L53.2729 217.915L54.0024 213.37L50.7406 210.121L55.2888 209.411L57.3703 205.305Z" fill="#EBBE4A"/>
<path d="M74.5294 205.305L76.6109 209.411L81.1591 210.121L77.8973 213.37L78.6268 217.915L74.5294 215.817L70.432 217.915L71.1615 213.37L67.8997 210.121L72.4479 209.411L74.5294 205.305Z" fill="#EBBE4A"/>
<path d="M91.6885 205.305L93.7699 209.411L98.3182 210.121L95.0563 213.37L95.7858 217.915L91.6885 215.817L87.5911 217.915L88.3206 213.37L85.0588 210.121L89.607 209.411L91.6885 205.305Z" fill="#EBBE4A"/>
<path d="M108.848 205.305L110.929 209.411L115.477 210.121L112.215 213.37L112.945 217.915L108.848 215.817L104.75 217.915L105.48 213.37L102.218 210.121L106.766 209.411L108.848 205.305Z" fill="#EBBE4A"/>
<path d="M121.637 242.121L197.654 70.1398L208.976 89.0092H107.351L126.759 68.5224V119.739H87.942V53.4269H239.167V81.731L169.08 242.121H121.637Z" fill="white"/>
<path d="M121.637 242.121L197.654 70.1398L208.976 89.0092H107.351L126.759 68.5224V119.739H87.942V53.4269H239.167V81.731L169.08 242.121H121.637Z" fill="url(#paint0_linear_42_15)"/>
<rect x="128.044" y="165.571" width="93.4097" height="37.6427" fill="#151545"/>
<path d="M35.4242 159.899V141.481H43.7913C45.791 141.481 47.5539 141.867 49.08 142.638C50.6061 143.393 51.7989 144.454 52.6584 145.822C53.5179 147.19 53.9477 148.813 53.9477 150.69C53.9477 152.549 53.5179 154.172 52.6584 155.557C51.7989 156.926 50.6061 157.996 49.08 158.768C47.5539 159.522 45.791 159.899 43.7913 159.899H35.4242ZM39.6867 156.399H43.5809C44.8087 156.399 45.87 156.171 46.7646 155.715C47.6767 155.242 48.3784 154.575 48.8695 153.716C49.3782 152.856 49.6325 151.848 49.6325 150.69C49.6325 149.515 49.3782 148.506 48.8695 147.664C48.3784 146.804 47.6767 146.147 46.7646 145.691C45.87 145.217 44.8087 144.98 43.5809 144.98H39.6867V156.399ZM57.1622 159.899V141.481H61.4247V159.899H57.1622ZM63.3751 159.899L71.5843 141.481H75.7942L84.0297 159.899H79.5567L72.821 143.638H74.5049L67.7428 159.899H63.3751ZM67.4797 155.952L68.6111 152.716H78.0833L79.241 155.952H67.4797ZM91.9923 160.215C90.5189 160.215 89.1068 160.022 87.7561 159.636C86.4055 159.232 85.3179 158.715 84.4935 158.083L85.9406 154.873C86.73 155.435 87.6597 155.9 88.7297 156.268C89.8172 156.619 90.9135 156.794 92.0186 156.794C92.8606 156.794 93.5359 156.715 94.0446 156.557C94.5709 156.382 94.9568 156.145 95.2023 155.847C95.4479 155.549 95.5707 155.207 95.5707 154.821C95.5707 154.33 95.3778 153.944 94.9919 153.663C94.6059 153.365 94.0973 153.128 93.4658 152.953C92.8343 152.76 92.1326 152.584 91.3608 152.426C90.6066 152.251 89.8435 152.04 89.0717 151.795C88.3174 151.549 87.6246 151.234 86.9931 150.848C86.3616 150.462 85.8442 149.953 85.4407 149.322C85.0548 148.69 84.8618 147.883 84.8618 146.901C84.8618 145.848 85.1425 144.892 85.7038 144.033C86.2827 143.156 87.1422 142.463 88.2824 141.954C89.4401 141.428 90.8872 141.165 92.6238 141.165C93.7815 141.165 94.9217 141.305 96.0443 141.586C97.167 141.849 98.158 142.253 99.0175 142.796L97.702 146.033C96.8424 145.542 95.9829 145.182 95.1234 144.954C94.2639 144.708 93.4219 144.586 92.5975 144.586C91.7731 144.586 91.0977 144.682 90.5715 144.875C90.0453 145.068 89.6681 145.322 89.4401 145.638C89.212 145.936 89.098 146.287 89.098 146.69C89.098 147.164 89.291 147.55 89.6769 147.848C90.0628 148.129 90.5715 148.357 91.203 148.532C91.8344 148.708 92.5273 148.883 93.2816 149.059C94.0534 149.234 94.8164 149.436 95.5707 149.664C96.3425 149.892 97.0442 150.199 97.6756 150.585C98.3071 150.97 98.8158 151.479 99.2017 152.111C99.6052 152.742 99.8069 153.54 99.8069 154.505C99.8069 155.54 99.5175 156.487 98.9386 157.347C98.3597 158.206 97.4915 158.899 96.3337 159.425C95.1936 159.952 93.7464 160.215 91.9923 160.215ZM110.171 159.899V141.481H118.538C120.538 141.481 122.301 141.867 123.827 142.638C125.353 143.393 126.546 144.454 127.405 145.822C128.265 147.19 128.694 148.813 128.694 150.69C128.694 152.549 128.265 154.172 127.405 155.557C126.546 156.926 125.353 157.996 123.827 158.768C122.301 159.522 120.538 159.899 118.538 159.899H110.171ZM114.434 156.399H118.328C119.556 156.399 120.617 156.171 121.511 155.715C122.424 155.242 123.125 154.575 123.616 153.716C124.125 152.856 124.379 151.848 124.379 150.69C124.379 149.515 124.125 148.506 123.616 147.664C123.125 146.804 122.424 146.147 121.511 145.691C120.617 145.217 119.556 144.98 118.328 144.98H114.434V156.399ZM135.829 148.901H144.696V152.216H135.829V148.901ZM136.145 156.478H146.17V159.899H131.909V141.481H145.828V144.901H136.145V156.478ZM44.3176 192.215C42.8617 192.215 41.5198 191.987 40.2919 191.531C39.0816 191.057 38.0203 190.39 37.1082 189.531C36.2136 188.671 35.5119 187.663 35.0032 186.505C34.5121 185.347 34.2665 184.076 34.2665 182.69C34.2665 181.304 34.5121 180.032 35.0032 178.875C35.5119 177.717 36.2223 176.708 37.1345 175.849C38.0466 174.989 39.1166 174.331 40.3445 173.875C41.5724 173.402 42.9231 173.165 44.3965 173.165C46.0278 173.165 47.4925 173.437 48.7906 173.981C50.1062 174.524 51.2112 175.314 52.1058 176.349L49.3694 178.875C48.7029 178.173 47.9749 177.656 47.1856 177.322C46.3962 176.971 45.5367 176.796 44.607 176.796C43.7124 176.796 42.8967 176.936 42.16 177.217C41.4233 177.498 40.783 177.901 40.2393 178.427C39.713 178.954 39.3008 179.576 39.0026 180.295C38.722 181.015 38.5816 181.813 38.5816 182.69C38.5816 183.549 38.722 184.339 39.0026 185.058C39.3008 185.777 39.713 186.409 40.2393 186.952C40.783 187.479 41.4145 187.882 42.1337 188.163C42.8704 188.443 43.6773 188.584 44.5544 188.584C45.3964 188.584 46.212 188.452 47.0014 188.189C47.8083 187.908 48.5888 187.443 49.3431 186.794L51.7638 189.873C50.7639 190.627 49.5975 191.206 48.2643 191.609C46.9488 192.013 45.6332 192.215 44.3176 192.215ZM47.8697 189.32V182.4H51.7638V189.873L47.8697 189.32ZM53.3026 191.899L61.5119 173.481H65.7217L73.9573 191.899H69.4843L62.7485 175.638H64.4325L57.6704 191.899H53.3026ZM57.4072 187.952L58.5386 184.716H68.0108L69.1686 187.952H57.4072ZM75.8682 191.899V173.481H83.8406C85.4895 173.481 86.9103 173.753 88.1031 174.296C89.2959 174.823 90.2168 175.586 90.8658 176.586C91.5149 177.585 91.8394 178.778 91.8394 180.164C91.8394 181.532 91.5149 182.716 90.8658 183.716C90.2168 184.698 89.2959 185.453 88.1031 185.979C86.9103 186.505 85.4895 186.768 83.8406 186.768H78.2362L80.1307 184.9V191.899H75.8682ZM87.5769 191.899L82.9723 185.216H87.5243L92.1814 191.899H87.5769ZM80.1307 185.374L78.2362 183.374H83.6038C84.9194 183.374 85.9017 183.093 86.5507 182.532C87.1998 181.953 87.5243 181.164 87.5243 180.164C87.5243 179.147 87.1998 178.357 86.5507 177.796C85.9017 177.235 84.9194 176.954 83.6038 176.954H78.2362L80.1307 174.928V185.374ZM92.7958 191.899L101.005 173.481H105.215L113.451 191.899H108.978L102.242 175.638H103.926L97.1636 191.899H92.7958ZM96.9005 187.952L98.0319 184.716H107.504L108.662 187.952H96.9005ZM115.361 191.899V173.481H118.887L129.754 186.742H128.044V173.481H132.254V191.899H128.754L117.861 178.638H119.571V191.899H115.361ZM140.426 191.899V176.954H134.533V173.481H150.583V176.954H144.689V191.899H140.426ZM152.876 191.899V173.481H157.139V191.899H152.876ZM159.089 191.899L167.298 173.481H171.508L179.744 191.899H175.271L168.535 175.638H170.219L163.457 191.899H159.089ZM163.194 187.952L164.325 184.716H173.797L174.955 187.952H163.194Z" fill="white"/>
<path d="M1 126.9C1 79.0686 1 55.1533 6.76769 47.1077C12.5352 39.0621 35.5022 31.3648 81.4364 15.9701L90.1877 13.0373C114.132 5.01242 126.104 1 138.5 1C150.897 1 162.869 5.01242 186.814 13.0373L195.565 15.9701C241.499 31.3648 264.466 39.0621 270.234 47.1077C276.001 55.1533 276.001 79.0686 276.001 126.9C276.001 134.123 276.001 141.958 276.001 150.455C276.001 234.79 211.238 275.717 170.605 293.096C159.584 297.809 154.073 300.167 138.5 300.167C122.928 300.167 117.417 297.809 106.395 293.096C65.7621 275.717 1 234.79 1 150.455C1 141.958 1 134.123 1 126.9Z" stroke="white" stroke-width="1.96132"/>
<defs>
<linearGradient id="paint0_linear_42_15" x1="164.514" y1="10.1206" x2="164.514" y2="241.749" gradientUnits="userSpaceOnUse">
<stop stop-color="white" stop-opacity="0"/>
<stop offset="1" stop-color="#151545"/>
</linearGradient>
</defs>
</svg>
