<svg width="50" height="50" viewBox="0 0 50 50" fill="none" xmlns="http://www.w3.org/2000/svg">
<path d="M22 1.73205C23.8564 0.660254 26.1436 0.660254 28 1.73205L43.6506 10.7679C45.507 11.8397 46.6506 13.8205 46.6506 15.9641V34.0359C46.6506 36.1795 45.507 38.1603 43.6506 39.2321L28 48.2679C26.1436 49.3397 23.8564 49.3397 22 48.2679L6.34936 39.2321C4.49296 38.1603 3.34937 36.1795 3.34937 34.0359V15.9641C3.34937 13.8205 4.49296 11.8397 6.34937 10.7679L22 1.73205Z" fill="white"/>
<g clip-path="url(#clip0_24_25)">
<path d="M23.8333 27.0102C23.4788 26.8078 23.1841 26.5152 22.9792 26.1622C22.7742 25.8092 22.6662 25.4082 22.6662 25C22.6662 24.5918 22.7742 24.1908 22.9792 23.8378C23.1841 23.4848 23.4788 23.1922 23.8333 22.9898V19.1667C23.8333 18.8572 23.9562 18.5605 24.175 18.3417C24.3938 18.1229 24.6906 18 25 18C25.3094 18 25.6062 18.1229 25.825 18.3417C26.0437 18.5605 26.1667 18.8572 26.1667 19.1667V22.9898C26.5212 23.1922 26.8159 23.4848 27.0208 23.8378C27.2258 24.1908 27.3338 24.5918 27.3338 25C27.3338 25.4082 27.2258 25.8092 27.0208 26.1622C26.8159 26.5152 26.5212 26.8078 26.1667 27.0102V29.6667C26.1667 29.9761 26.0437 30.2728 25.825 30.4916C25.6062 30.7104 25.3094 30.8333 25 30.8333C24.6906 30.8333 24.3938 30.7104 24.175 30.4916C23.9562 30.2728 23.8333 29.9761 23.8333 29.6667V27.0102ZM25 11C24.6906 11 24.3938 11.1229 24.175 11.3417C23.9562 11.5605 23.8333 11.8572 23.8333 12.1667C23.8333 12.4761 23.9562 12.7728 24.175 12.9916C24.3938 13.2104 24.6906 13.3333 25 13.3333C28.0942 13.3333 31.0617 14.5625 33.2496 16.7504C35.4375 18.9383 36.6667 21.9058 36.6667 25C36.6667 28.0942 35.4375 31.0617 33.2496 33.2496C31.0617 35.4375 28.0942 36.6667 25 36.6667C24.6906 36.6667 24.3938 36.7896 24.175 37.0084C23.9562 37.2272 23.8333 37.5239 23.8333 37.8333C23.8333 38.1428 23.9562 38.4395 24.175 38.6583C24.3938 38.8771 24.6906 39 25 39C28.713 39 32.274 37.525 34.8995 34.8995C37.525 32.274 39 28.713 39 25C39 21.287 37.525 17.726 34.8995 15.1005C32.274 12.475 28.713 11 25 11ZM13.1315 18.9147C12.9008 18.9147 12.6752 18.9831 12.4833 19.1113C12.2915 19.2395 12.1419 19.4217 12.0536 19.6349C11.9653 19.848 11.9422 20.0826 11.9873 20.3089C12.0323 20.5352 12.1434 20.7431 12.3065 20.9063C12.4697 21.0695 12.6776 21.1806 12.9039 21.2256C13.1302 21.2706 13.3648 21.2475 13.578 21.1592C13.7911 21.0709 13.9734 20.9214 14.1015 20.7295C14.2297 20.5376 14.2982 20.3121 14.2982 20.0813C14.2982 19.7719 14.1753 19.4752 13.9565 19.2564C13.7377 19.0376 13.4409 18.9147 13.1315 18.9147ZM13.3333 25C13.3333 24.7693 13.2649 24.5437 13.1367 24.3518C13.0085 24.16 12.8263 24.0104 12.6131 23.9221C12.4 23.8338 12.1654 23.8107 11.9391 23.8558C11.7128 23.9008 11.5049 24.0119 11.3417 24.175C11.1785 24.3382 11.0674 24.5461 11.0224 24.7724C10.9774 24.9987 11.0005 25.2333 11.0888 25.4465C11.1771 25.6596 11.3266 25.8419 11.5185 25.97C11.7104 26.0982 11.9359 26.1667 12.1667 26.1667C12.4761 26.1667 12.7728 26.0437 12.9916 25.825C13.2104 25.6062 13.3333 25.3094 13.3333 25ZM15.9245 14.7415C15.6938 14.7415 15.4682 14.8099 15.2763 14.9381C15.0845 15.0663 14.9349 15.2485 14.8466 15.4617C14.7583 15.6749 14.7352 15.9095 14.7803 16.1358C14.8253 16.3621 14.9364 16.57 15.0995 16.7331C15.2627 16.8963 15.4706 17.0074 15.6969 17.0524C15.9232 17.0974 16.1578 17.0743 16.371 16.986C16.5841 16.8977 16.7664 16.7482 16.8945 16.5563C17.0227 16.3645 17.0912 16.1389 17.0912 15.9082C17.0912 15.5987 16.9683 15.302 16.7495 15.0832C16.5307 14.8644 16.2339 14.7415 15.9245 14.7415ZM20.0755 11.9812C19.8448 11.9812 19.6192 12.0496 19.4273 12.1778C19.2355 12.306 19.0859 12.4882 18.9976 12.7014C18.9093 12.9145 18.8862 13.1491 18.9313 13.3754C18.9763 13.6017 19.0874 13.8096 19.2505 13.9728C19.4137 14.136 19.6216 14.2471 19.8479 14.2921C20.0742 14.3371 20.3088 14.314 20.522 14.2257C20.7351 14.1374 20.9174 13.9879 21.0455 13.796C21.1737 13.6041 21.2422 13.3786 21.2422 13.1478C21.2422 12.8384 21.1193 12.5417 20.9005 12.3229C20.6817 12.1041 20.3849 11.9812 20.0755 11.9812ZM13.1315 28.752C12.9008 28.752 12.6752 28.8204 12.4833 28.9486C12.2915 29.0768 12.1419 29.259 12.0536 29.4722C11.9653 29.6854 11.9422 29.92 11.9873 30.1463C12.0323 30.3726 12.1434 30.5805 12.3065 30.7436C12.4697 30.9068 12.6776 31.0179 12.9039 31.0629C13.1302 31.1079 13.3648 31.0848 13.578 30.9965C13.7911 30.9082 13.9734 30.7587 14.1015 30.5668C14.2297 30.375 14.2982 30.1494 14.2982 29.9187C14.2982 29.6092 14.1753 29.3125 13.9565 29.0937C13.7377 28.8749 13.4409 28.752 13.1315 28.752ZM15.9245 32.9252C15.6938 32.9252 15.4682 32.9936 15.2763 33.1218C15.0845 33.25 14.9349 33.4322 14.8466 33.6454C14.7583 33.8585 14.7352 34.0931 14.7803 34.3194C14.8253 34.5457 14.9364 34.7536 15.0995 34.9168C15.2627 35.08 15.4706 35.1911 15.6969 35.2361C15.9232 35.2811 16.1578 35.258 16.371 35.1697C16.5841 35.0814 16.7664 34.9319 16.8945 34.74C17.0227 34.5481 17.0912 34.3226 17.0912 34.0918C17.0912 33.7824 16.9683 33.4857 16.7495 33.2669C16.5307 33.0481 16.2339 32.9252 15.9245 32.9252ZM20.0755 35.6855C19.8448 35.6855 19.6192 35.7539 19.4273 35.8821C19.2355 36.0103 19.0859 36.1925 18.9976 36.4057C18.9093 36.6189 18.8862 36.8535 18.9313 37.0798C18.9763 37.3061 19.0874 37.514 19.2505 37.6771C19.4137 37.8403 19.6216 37.9514 19.8479 37.9964C20.0742 38.0414 20.3088 38.0183 20.522 37.93C20.7351 37.8417 20.9174 37.6922 21.0455 37.5003C21.1737 37.3085 21.2422 37.0829 21.2422 36.8522C21.2422 36.5427 21.1193 36.246 20.9005 36.0272C20.6817 35.8084 20.3849 35.6855 20.0755 35.6855Z" fill="#E26A26"/>
</g>
<defs>
<clipPath id="clip0_24_25">
<rect width="28" height="28" fill="white" transform="translate(11 11)"/>
</clipPath>
</defs>
</svg>
