<svg width="50" height="50" viewBox="0 0 50 50" fill="none" xmlns="http://www.w3.org/2000/svg">
<path d="M22 1.73205C23.8564 0.660254 26.1436 0.660254 28 1.73205L43.6506 10.7679C45.507 11.8397 46.6506 13.8205 46.6506 15.9641V34.0359C46.6506 36.1795 45.507 38.1603 43.6506 39.2321L28 48.2679C26.1436 49.3397 23.8564 49.3397 22 48.2679L6.34936 39.2321C4.49296 38.1603 3.34937 36.1795 3.34937 34.0359V15.9641C3.34937 13.8205 4.49296 11.8397 6.34937 10.7679L22 1.73205Z" fill="white"/>
<g clip-path="url(#clip0_24_27)">
<path d="M27.8121 19.5608H19.7935V20.8973H27.8121V19.5608Z" fill="#E26A26"/>
<path d="M27.8121 24.4612H19.7935V25.7976H27.8121V24.4612Z" fill="#E26A26"/>
<path d="M24.6937 29.3613H19.7935V30.6978H24.6937V29.3613Z" fill="#E26A26"/>
<path d="M37.1029 16.3986C33.134 16.9454 28.9866 26.5463 27.1161 29.9923C26.6463 30.8581 27.7389 31.5806 28.2224 30.7519C28.5709 30.1563 30.4716 26.4049 30.4716 26.4049C32.5419 26.4732 33.3055 25.0276 32.478 24.1297C35.2605 24.1871 36.6396 22.6558 35.8505 21.7265C36.6805 21.9893 37.3992 21.8135 38.4668 21.2315C40.7447 19.9889 40.6385 15.8299 37.1029 16.3986Z" fill="#E26A26"/>
<path d="M31.8241 27.5913V34.5036C31.8241 34.7084 31.657 34.8751 31.4526 34.8755H16.1535C15.949 34.8751 15.7824 34.7084 15.782 34.5036V15.4962C15.7824 15.2912 15.949 15.1247 16.1535 15.1242H31.4526C31.6571 15.1247 31.8241 15.2913 31.8241 15.4962V18.9473C32.4071 18.1621 32.9996 17.4673 33.606 16.8905V15.4962C33.6051 14.3064 32.6429 13.3432 31.4526 13.3423H16.1535C14.9636 13.3432 14.0005 14.3064 14 15.4962V34.5036C14.0005 35.6935 14.9636 36.6567 16.1535 36.6575H31.4526C32.6429 36.6567 33.6052 35.6934 33.6061 34.5036V26.4575C33.1936 27.0009 32.5793 27.3924 31.8241 27.5913Z" fill="#E26A26"/>
</g>
<defs>
<clipPath id="clip0_24_27">
<rect width="26" height="26" fill="white" transform="translate(14 12)"/>
</clipPath>
</defs>
</svg>
