<svg width="50" height="50" viewBox="0 0 50 50" fill="none" xmlns="http://www.w3.org/2000/svg">
<path d="M22 1.73205C23.8564 0.660254 26.1436 0.660254 28 1.73205L43.6506 10.7679C45.507 11.8397 46.6506 13.8205 46.6506 15.9641V34.0359C46.6506 36.1795 45.507 38.1603 43.6506 39.2321L28 48.2679C26.1436 49.3397 23.8564 49.3397 22 48.2679L6.34936 39.2321C4.49296 38.1603 3.34937 36.1795 3.34937 34.0359V15.9641C3.34937 13.8205 4.49296 11.8397 6.34937 10.7679L22 1.73205Z" fill="white"/>
<path d="M15.3092 16.2521C14.8451 15.8052 14.1066 15.8191 13.6596 16.2833C13.2127 16.7474 13.2266 17.4859 13.6907 17.9329L15.3092 16.2521ZM16.6538 19.1666L15.8446 20.007C16.2964 20.442 17.0113 20.442 17.4631 20.007L16.6538 19.1666ZM22.3092 15.3403C22.7734 14.8934 22.7873 14.1548 22.3404 13.6907C21.8934 13.2265 21.1549 13.2126 20.6907 13.6595L22.3092 15.3403ZM26.1667 14.4999C25.5223 14.4999 25 15.0223 25 15.6666C25 16.3109 25.5223 16.8333 26.1667 16.8333V14.4999ZM34.3333 29.6666C34.3333 30.3109 34.8556 30.8333 35.5 30.8333C36.1443 30.8333 36.6667 30.3109 36.6667 29.6666H34.3333ZM13.3333 29.6666C13.3333 30.3109 13.8557 30.8333 14.5 30.8333C15.1443 30.8333 15.6667 30.3109 15.6667 29.6666H13.3333ZM15.6667 23.8333C15.6667 23.1889 15.1443 22.6666 14.5 22.6666C13.8557 22.6666 13.3333 23.1889 13.3333 23.8333H15.6667ZM13.3333 29.6666V28.4999C12.689 28.4999 12.1667 29.0222 12.1667 29.6666H13.3333ZM36.6667 29.6666H37.8333C37.8333 29.0222 37.311 28.4999 36.6667 28.4999V29.6666ZM13.6907 17.9329L15.8446 20.007L17.4631 18.3262L15.3092 16.2521L13.6907 17.9329ZM17.4631 20.007L22.3092 15.3403L20.6907 13.6595L15.8446 18.3262L17.4631 20.007ZM26.1667 16.8333H31.7667V14.4999H26.1667V16.8333ZM34.3333 19.3999V29.6666H36.6667V19.3999H34.3333ZM31.7667 16.8333C32.4394 16.8333 32.8736 16.8342 33.2042 16.8612C33.5211 16.8871 33.6386 16.931 33.6963 16.9604L34.7557 14.8814C34.3142 14.6565 33.8555 14.5733 33.3942 14.5356C32.9466 14.499 32.4009 14.4999 31.7667 14.4999V16.8333ZM36.6667 19.3999C36.6667 18.7658 36.6676 18.22 36.631 17.7724C36.5933 17.3112 36.5101 16.8524 36.2852 16.411L34.2062 17.4703C34.2356 17.5279 34.2795 17.6455 34.3054 17.9624C34.3324 18.293 34.3333 18.7273 34.3333 19.3999H36.6667ZM33.6963 16.9604C33.9159 17.0723 34.0943 17.2507 34.2062 17.4703L36.2852 16.411C35.9496 15.7524 35.4142 15.217 34.7557 14.8814L33.6963 16.9604ZM15.6667 29.6666V23.8333H13.3333V29.6666H15.6667ZM13.3333 30.8333H36.6667V28.4999H13.3333V30.8333ZM35.5 29.6666V30.5999H37.8333V29.6666H35.5ZM32.9333 33.1666H17.0667V35.4999H32.9333V33.1666ZM14.5 30.5999V29.6666H12.1667V30.5999H14.5ZM17.0667 33.1666C16.394 33.1666 15.9597 33.1657 15.6291 33.1387C15.3122 33.1128 15.1947 33.0688 15.137 33.0394L14.0777 35.1184C14.5191 35.3434 14.9779 35.4265 15.4391 35.4642C15.8867 35.5009 16.4325 35.4999 17.0667 35.4999V33.1666ZM12.1667 30.5999C12.1667 31.2341 12.1658 31.7799 12.2023 32.2274C12.24 32.6887 12.3232 33.1475 12.5481 33.5889L14.6271 32.5296C14.5978 32.4718 14.5538 32.3544 14.5279 32.0375C14.5009 31.7069 14.5 31.2726 14.5 30.5999H12.1667ZM15.137 33.0394C14.9175 32.9275 14.739 32.7492 14.6271 32.5296L12.5481 33.5889C12.8837 34.2475 13.4191 34.7829 14.0777 35.1184L15.137 33.0394ZM35.5 30.5999C35.5 31.2726 35.4991 31.7069 35.4721 32.0375C35.4462 32.3544 35.4022 32.4718 35.3728 32.5296L37.4518 33.5889C37.6768 33.1475 37.7599 32.6887 37.7976 32.2274C37.8343 31.7799 37.8333 31.2341 37.8333 30.5999H35.5ZM32.9333 35.4999C33.5675 35.4999 34.1133 35.5009 34.5608 35.4642C35.0221 35.4265 35.4809 35.3434 35.9223 35.1184L34.863 33.0394C34.8052 33.0688 34.6878 33.1128 34.3709 33.1387C34.0403 33.1657 33.606 33.1666 32.9333 33.1666V35.4999ZM35.3728 32.5296C35.2609 32.7492 35.0826 32.9275 34.863 33.0394L35.9223 35.1184C36.5809 34.7829 37.1163 34.2475 37.4518 33.5889L35.3728 32.5296Z" fill="#E26A26"/>
</svg>
