<svg width="79" height="79" viewBox="0 0 79 79" fill="none" xmlns="http://www.w3.org/2000/svg">
<path d="M36.6081 1.47459C38.1886 0.562111 40.1358 0.562108 41.7162 1.47458L70.5235 18.1065C72.104 19.019 73.0776 20.7053 73.0776 22.5302V55.7941C73.0776 57.619 72.104 59.3054 70.5235 60.2178L41.7162 76.8497C40.1358 77.7622 38.1886 77.7622 36.6081 76.8497L7.80079 60.2178C6.22034 59.3054 5.24673 57.619 5.24673 55.7941V22.5303C5.24673 20.7053 6.22033 19.019 7.80079 18.1065L36.6081 1.47459Z" fill="url(#paint0_linear_5_290)"/>
<path d="M21.4881 46.3185V42.6066L32.7259 27.4866H38.5151L27.5157 42.6066L24.8254 41.8234H43.5892V46.3185H21.4881ZM34.3265 51.3245V46.3185L34.4968 41.8234V37.3623H39.707V51.3245H34.3265ZM49.9975 38.8607C48.885 38.8607 47.8748 38.6109 46.9667 38.1115C46.0586 37.5893 45.3321 36.8855 44.7872 36.0001C44.265 35.1147 44.004 34.1272 44.004 33.0374C44.004 31.9477 44.265 30.9601 44.7872 30.0747C45.3321 29.1893 46.0586 28.4855 46.9667 27.9634C47.8748 27.4412 48.885 27.1801 49.9975 27.1801C51.1099 27.1801 52.1088 27.4412 52.9942 27.9634C53.9023 28.4855 54.6175 29.1893 55.1396 30.0747C55.6845 30.9601 55.9569 31.9477 55.9569 33.0374C55.9569 34.1272 55.6845 35.1147 55.1396 36.0001C54.6175 36.8628 53.9023 37.5553 52.9942 38.0774C52.1088 38.5996 51.1099 38.8607 49.9975 38.8607ZM49.9975 36.2385C50.5877 36.2385 51.1213 36.1023 51.598 35.8299C52.0748 35.5347 52.4494 35.1488 52.7218 34.672C52.9942 34.1953 53.1304 33.6504 53.1304 33.0374C53.1304 32.4245 52.9942 31.8796 52.7218 31.4028C52.4494 30.9034 52.0748 30.5174 51.598 30.245C51.1213 29.9726 50.5877 29.8364 49.9975 29.8364C49.3845 29.8364 48.8396 29.9726 48.3629 30.245C47.8861 30.5174 47.5115 30.892 47.2391 31.3688C46.9667 31.8455 46.8304 32.4018 46.8304 33.0374C46.8304 33.6504 46.9667 34.1953 47.2391 34.672C47.5115 35.1488 47.8861 35.5347 48.3629 35.8299C48.8396 36.1023 49.3845 36.2385 49.9975 36.2385Z" fill="white"/>
<defs>
<linearGradient id="paint0_linear_5_290" x1="39.1622" y1="0" x2="39.1622" y2="78.3243" gradientUnits="userSpaceOnUse">
<stop stop-color="#E29726"/>
<stop offset="1" stop-color="#E26A26"/>
</linearGradient>
</defs>
</svg>
