<svg width="79" height="79" viewBox="0 0 79 79" fill="none" xmlns="http://www.w3.org/2000/svg">
<path d="M36.6081 1.47459C38.1886 0.562111 40.1358 0.562108 41.7162 1.47458L70.5235 18.1065C72.104 19.019 73.0776 20.7053 73.0776 22.5302V55.7941C73.0776 57.619 72.104 59.3054 70.5235 60.2178L41.7162 76.8497C40.1358 77.7622 38.1886 77.7622 36.6081 76.8497L7.80079 60.2178C6.22034 59.3054 5.24673 57.619 5.24673 55.7941V22.5303C5.24673 20.7053 6.22033 19.019 7.80079 18.1065L36.6081 1.47459Z" fill="url(#paint0_linear_5_288)"/>
<path d="M24.9616 51.3245V47.7488L34.1562 39.065C34.8827 38.4066 35.4162 37.8164 35.7567 37.2942C36.0973 36.772 36.3243 36.2953 36.4378 35.8639C36.574 35.4326 36.6422 35.0353 36.6422 34.672C36.6422 33.7185 36.313 32.992 35.6546 32.4926C35.0189 31.9704 34.0767 31.7093 32.8281 31.7093C31.8292 31.7093 30.8984 31.9023 30.0357 32.2882C29.1957 32.6742 28.4805 33.2758 27.8903 34.0931L23.8719 31.505C24.78 30.1428 26.0513 29.0645 27.6859 28.2699C29.3205 27.4753 31.2049 27.078 33.3389 27.078C35.1097 27.078 36.6535 27.3731 37.9703 27.9634C39.3097 28.5309 40.3427 29.3369 41.0692 30.3812C41.8184 31.4255 42.193 32.6742 42.193 34.1272C42.193 34.8991 42.0908 35.6709 41.8865 36.4428C41.7049 37.192 41.3189 37.9866 40.7286 38.8266C40.1611 39.6666 39.3211 40.6088 38.2086 41.6531L30.5805 48.8385L29.5249 46.8293H42.9762V51.3245H24.9616ZM51.0417 38.8607C49.9293 38.8607 48.919 38.6109 48.0109 38.1115C47.1028 37.5893 46.3763 36.8855 45.8314 36.0001C45.3093 35.1147 45.0482 34.1272 45.0482 33.0374C45.0482 31.9477 45.3093 30.9601 45.8314 30.0747C46.3763 29.1893 47.1028 28.4855 48.0109 27.9634C48.919 27.4412 49.9293 27.1801 51.0417 27.1801C52.1541 27.1801 53.153 27.4412 54.0385 27.9634C54.9466 28.4855 55.6617 29.1893 56.1839 30.0747C56.7287 30.9601 57.0012 31.9477 57.0012 33.0374C57.0012 34.1272 56.7287 35.1147 56.1839 36.0001C55.6617 36.8628 54.9466 37.5553 54.0385 38.0774C53.153 38.5996 52.1541 38.8607 51.0417 38.8607ZM51.0417 36.2385C51.632 36.2385 52.1655 36.1023 52.6422 35.8299C53.119 35.5347 53.4936 35.1488 53.766 34.672C54.0385 34.1953 54.1747 33.6504 54.1747 33.0374C54.1747 32.4245 54.0385 31.8796 53.766 31.4028C53.4936 30.9034 53.119 30.5174 52.6422 30.245C52.1655 29.9726 51.632 29.8364 51.0417 29.8364C50.4287 29.8364 49.8839 29.9726 49.4071 30.245C48.9303 30.5174 48.5558 30.892 48.2833 31.3688C48.0109 31.8455 47.8747 32.4018 47.8747 33.0374C47.8747 33.6504 48.0109 34.1953 48.2833 34.672C48.5558 35.1488 48.9303 35.5347 49.4071 35.8299C49.8839 36.1023 50.4287 36.2385 51.0417 36.2385Z" fill="white"/>
<defs>
<linearGradient id="paint0_linear_5_288" x1="39.1622" y1="0" x2="39.1622" y2="78.3243" gradientUnits="userSpaceOnUse">
<stop stop-color="#E29726"/>
<stop offset="1" stop-color="#E26A26"/>
</linearGradient>
</defs>
</svg>
