<svg width="79" height="79" viewBox="0 0 79 79" fill="none" xmlns="http://www.w3.org/2000/svg">
<path d="M36.6081 1.47459C38.1886 0.562111 40.1358 0.562108 41.7162 1.47458L70.5235 18.1065C72.104 19.019 73.0776 20.7053 73.0776 22.5302V55.7941C73.0776 57.619 72.104 59.3054 70.5235 60.2178L41.7162 76.8497C40.1358 77.7622 38.1886 77.7622 36.6081 76.8497L7.80079 60.2178C6.22034 59.3054 5.24673 57.619 5.24673 55.7941V22.5303C5.24673 20.7053 6.22033 19.019 7.80079 18.1065L36.6081 1.47459Z" fill="url(#paint0_linear_5_291)"/>
<path d="M33.2708 51.7331C31.6135 51.7331 29.9676 51.5174 28.333 51.0861C26.7211 50.632 25.3362 49.9964 24.1784 49.1791L26.3578 44.9564C27.2659 45.6147 28.3103 46.1369 29.4908 46.5228C30.694 46.9088 31.9086 47.1018 33.1346 47.1018C34.5195 47.1018 35.6092 46.8293 36.4038 46.2845C37.1984 45.7396 37.5957 44.9791 37.5957 44.0028C37.5957 43.3899 37.4367 42.845 37.1189 42.3682C36.8011 41.8915 36.2335 41.5282 35.4162 41.2785C34.6216 41.0288 33.4978 40.9039 32.0449 40.9039H25.9492L27.1751 27.4866H41.7162V31.9137H29.1503L32.0108 29.3937L31.1595 38.9628L28.2989 36.4428H33.3389C35.7 36.4428 37.5957 36.772 39.0259 37.4304C40.4789 38.0661 41.5346 38.9401 42.193 40.0526C42.8513 41.165 43.1805 42.425 43.1805 43.8326C43.1805 45.2401 42.8286 46.5455 42.1249 47.7488C41.4211 48.9293 40.3313 49.8942 38.8557 50.6434C37.4027 51.3699 35.5411 51.7331 33.2708 51.7331ZM50.9752 38.8607C49.8628 38.8607 48.8525 38.6109 47.9444 38.1115C47.0363 37.5893 46.3098 36.8855 45.7649 36.0001C45.2428 35.1147 44.9817 34.1272 44.9817 33.0374C44.9817 31.9477 45.2428 30.9601 45.7649 30.0747C46.3098 29.1893 47.0363 28.4855 47.9444 27.9634C48.8525 27.4412 49.8628 27.1801 50.9752 27.1801C52.0876 27.1801 53.0865 27.4412 53.9719 27.9634C54.8801 28.4855 55.5952 29.1893 56.1173 30.0747C56.6622 30.9601 56.9346 31.9477 56.9346 33.0374C56.9346 34.1272 56.6622 35.1147 56.1173 36.0001C55.5952 36.8628 54.8801 37.5553 53.9719 38.0774C53.0865 38.5996 52.0876 38.8607 50.9752 38.8607ZM50.9752 36.2385C51.5655 36.2385 52.099 36.1023 52.5757 35.8299C53.0525 35.5347 53.4271 35.1488 53.6995 34.672C53.9719 34.1953 54.1082 33.6504 54.1082 33.0374C54.1082 32.4245 53.9719 31.8796 53.6995 31.4028C53.4271 30.9034 53.0525 30.5174 52.5757 30.245C52.099 29.9726 51.5655 29.8364 50.9752 29.8364C50.3622 29.8364 49.8173 29.9726 49.3406 30.245C48.8638 30.5174 48.4892 30.892 48.2168 31.3688C47.9444 31.8455 47.8082 32.4018 47.8082 33.0374C47.8082 33.6504 47.9444 34.1953 48.2168 34.672C48.4892 35.1488 48.8638 35.5347 49.3406 35.8299C49.8173 36.1023 50.3622 36.2385 50.9752 36.2385Z" fill="white"/>
<defs>
<linearGradient id="paint0_linear_5_291" x1="39.1622" y1="0" x2="39.1622" y2="78.3243" gradientUnits="userSpaceOnUse">
<stop stop-color="#E29726"/>
<stop offset="1" stop-color="#E26A26"/>
</linearGradient>
</defs>
</svg>
