<svg width="79" height="79" viewBox="0 0 79 79" fill="none" xmlns="http://www.w3.org/2000/svg">
<path d="M36.6081 1.47459C38.1886 0.562111 40.1358 0.562108 41.7162 1.47458L70.5235 18.1065C72.104 19.019 73.0776 20.7053 73.0776 22.5302V55.7941C73.0776 57.619 72.104 59.3054 70.5235 60.2178L41.7162 76.8497C40.1358 77.7622 38.1886 77.7622 36.6081 76.8497L7.80079 60.2178C6.22034 59.3054 5.24673 57.619 5.24673 55.7941V22.5303C5.24673 20.7053 6.22033 19.019 7.80079 18.1065L36.6081 1.47459Z" fill="url(#paint0_linear_5_287)"/>
<path d="M32.2492 51.3245V29.5299L34.633 31.9137H27.4816V27.4866H37.7659V51.3245H32.2492ZM47.6961 38.8607C46.5837 38.8607 45.5734 38.6109 44.6653 38.1115C43.7572 37.5893 43.0307 36.8855 42.4859 36.0001C41.9637 35.1147 41.7026 34.1272 41.7026 33.0374C41.7026 31.9477 41.9637 30.9601 42.4859 30.0747C43.0307 29.1893 43.7572 28.4855 44.6653 27.9634C45.5734 27.4412 46.5837 27.1801 47.6961 27.1801C48.8086 27.1801 49.8075 27.4412 50.6929 27.9634C51.601 28.4855 52.3161 29.1893 52.8383 30.0747C53.3832 30.9601 53.6556 31.9477 53.6556 33.0374C53.6556 34.1272 53.3832 35.1147 52.8383 36.0001C52.3161 36.8628 51.601 37.5553 50.6929 38.0774C49.8075 38.5996 48.8086 38.8607 47.6961 38.8607ZM47.6961 36.2385C48.2864 36.2385 48.8199 36.1023 49.2967 35.8299C49.7734 35.5347 50.148 35.1488 50.4205 34.672C50.6929 34.1953 50.8291 33.6504 50.8291 33.0374C50.8291 32.4245 50.6929 31.8796 50.4205 31.4028C50.148 30.9034 49.7734 30.5174 49.2967 30.245C48.8199 29.9726 48.2864 29.8364 47.6961 29.8364C47.0832 29.8364 46.5383 29.9726 46.0615 30.245C45.5848 30.5174 45.2102 30.892 44.9378 31.3688C44.6653 31.8455 44.5291 32.4018 44.5291 33.0374C44.5291 33.6504 44.6653 34.1953 44.9378 34.672C45.2102 35.1488 45.5848 35.5347 46.0615 35.8299C46.5383 36.1023 47.0832 36.2385 47.6961 36.2385Z" fill="white"/>
<defs>
<linearGradient id="paint0_linear_5_287" x1="39.1622" y1="0" x2="39.1622" y2="78.3243" gradientUnits="userSpaceOnUse">
<stop stop-color="#E29726"/>
<stop offset="1" stop-color="#E26A26"/>
</linearGradient>
</defs>
</svg>
