<svg width="79" height="79" viewBox="0 0 79 79" fill="none" xmlns="http://www.w3.org/2000/svg">
<path d="M36.6081 1.47459C38.1886 0.562111 40.1358 0.562108 41.7162 1.47458L70.5235 18.1065C72.104 19.019 73.0776 20.7053 73.0776 22.5302V55.7941C73.0776 57.619 72.104 59.3054 70.5235 60.2178L41.7162 76.8497C40.1358 77.7622 38.1886 77.7622 36.6081 76.8497L7.80079 60.2178C6.22034 59.3054 5.24673 57.619 5.24673 55.7941V22.5303C5.24673 20.7053 6.22033 19.019 7.80079 18.1065L36.6081 1.47459Z" fill="url(#paint0_linear_5_292)"/>
<path d="M35.8249 51.7331C33.6455 51.7331 31.7498 51.2791 30.1379 50.3709C28.5487 49.4628 27.3228 48.1347 26.4601 46.3866C25.5974 44.6385 25.166 42.4818 25.166 39.9164C25.166 37.1693 25.6768 34.8423 26.6984 32.9353C27.7428 31.0282 29.173 29.5753 30.9892 28.5764C32.8282 27.5774 34.9395 27.078 37.3233 27.078C38.5946 27.078 39.8092 27.2142 40.9671 27.4866C42.1249 27.7591 43.1238 28.1677 43.9638 28.7126L41.9206 32.765C41.2622 32.3109 40.5584 32.0045 39.8092 31.8455C39.0601 31.6639 38.2768 31.5731 37.4595 31.5731C35.3936 31.5731 33.759 32.1974 32.5557 33.4461C31.3525 34.6947 30.7509 36.545 30.7509 38.9969C30.7509 39.4055 30.7509 39.8596 30.7509 40.3591C30.7736 40.8585 30.8417 41.358 30.9552 41.8574L29.4228 40.4272C29.8541 39.5418 30.4103 38.8039 31.0914 38.2137C31.7725 37.6007 32.5784 37.1466 33.5092 36.8515C34.4628 36.5337 35.5071 36.3747 36.6422 36.3747C38.186 36.3747 39.5709 36.6812 40.7968 37.2942C42.0228 37.9072 42.999 38.7699 43.7255 39.8823C44.4746 40.9947 44.8492 42.3001 44.8492 43.7985C44.8492 45.4104 44.4406 46.818 43.6233 48.0212C42.8287 49.2018 41.7503 50.1212 40.3882 50.7796C39.0487 51.4153 37.5276 51.7331 35.8249 51.7331ZM35.5184 47.6126C36.2903 47.6126 36.9714 47.4764 37.5617 47.2039C38.1746 46.9088 38.6514 46.4888 38.9919 45.9439C39.3325 45.3991 39.5028 44.7747 39.5028 44.0709C39.5028 42.9812 39.1282 42.1185 38.379 41.4828C37.6525 40.8245 36.6763 40.4953 35.4503 40.4953C34.633 40.4953 33.9179 40.6542 33.3049 40.972C32.6919 41.2672 32.2038 41.6872 31.8406 42.232C31.5001 42.7542 31.3298 43.3672 31.3298 44.0709C31.3298 44.752 31.5001 45.365 31.8406 45.9099C32.1811 46.432 32.6579 46.852 33.2709 47.1699C33.8838 47.465 34.633 47.6126 35.5184 47.6126ZM52.1392 38.8607C51.0268 38.8607 50.0165 38.6109 49.1084 38.1115C48.2003 37.5893 47.4738 36.8855 46.9289 36.0001C46.4068 35.1147 46.1457 34.1272 46.1457 33.0374C46.1457 31.9477 46.4068 30.9601 46.9289 30.0747C47.4738 29.1893 48.2003 28.4855 49.1084 27.9634C50.0165 27.4412 51.0268 27.1801 52.1392 27.1801C53.2516 27.1801 54.2506 27.4412 55.136 27.9634C56.0441 28.4855 56.7592 29.1893 57.2814 30.0747C57.8262 30.9601 58.0987 31.9477 58.0987 33.0374C58.0987 34.1272 57.8262 35.1147 57.2814 36.0001C56.7592 36.8628 56.0441 37.5553 55.136 38.0774C54.2506 38.5996 53.2516 38.8607 52.1392 38.8607ZM52.1392 36.2385C52.7295 36.2385 53.263 36.1023 53.7397 35.8299C54.2165 35.5347 54.5911 35.1488 54.8635 34.672C55.136 34.1953 55.2722 33.6504 55.2722 33.0374C55.2722 32.4245 55.136 31.8796 54.8635 31.4028C54.5911 30.9034 54.2165 30.5174 53.7397 30.245C53.263 29.9726 52.7295 29.8364 52.1392 29.8364C51.5262 29.8364 50.9814 29.9726 50.5046 30.245C50.0279 30.5174 49.6533 30.892 49.3808 31.3688C49.1084 31.8455 48.9722 32.4018 48.9722 33.0374C48.9722 33.6504 49.1084 34.1953 49.3808 34.672C49.6533 35.1488 50.0279 35.5347 50.5046 35.8299C50.9814 36.1023 51.5262 36.2385 52.1392 36.2385Z" fill="white"/>
<defs>
<linearGradient id="paint0_linear_5_292" x1="39.1622" y1="0" x2="39.1622" y2="78.3243" gradientUnits="userSpaceOnUse">
<stop stop-color="#E29726"/>
<stop offset="1" stop-color="#E26A26"/>
</linearGradient>
</defs>
</svg>
