<svg width="79" height="79" viewBox="0 0 79 79" fill="none" xmlns="http://www.w3.org/2000/svg">
<path d="M36.6081 1.47459C38.1886 0.562111 40.1358 0.562108 41.7162 1.47458L70.5235 18.1065C72.104 19.019 73.0776 20.7053 73.0776 22.5302V55.7941C73.0776 57.619 72.104 59.3054 70.5235 60.2178L41.7162 76.8497C40.1358 77.7622 38.1886 77.7622 36.6081 76.8497L7.80079 60.2178C6.22034 59.3054 5.24673 57.619 5.24673 55.7941V22.5303C5.24673 20.7053 6.22033 19.019 7.80079 18.1065L36.6081 1.47459Z" fill="url(#paint0_linear_22_19)"/>
<path d="M33.7476 51.7331C32.0903 51.7331 30.4443 51.5174 28.8097 51.0861C27.1752 50.632 25.7903 49.9964 24.6552 49.1791L26.8006 44.9564C27.7087 45.6147 28.7643 46.1369 29.9676 46.5228C31.1708 46.9088 32.3854 47.1018 33.6114 47.1018C34.9962 47.1018 36.086 46.8293 36.8806 46.2845C37.6752 45.7396 38.0725 44.9904 38.0725 44.0369C38.0725 43.1288 37.7206 42.4137 37.0168 41.8915C36.313 41.3693 35.1779 41.1082 33.6114 41.1082H31.0914V37.4645L37.7319 29.9385L38.3449 31.9137H25.847V27.4866H42.5335V31.0623L35.927 38.5882L33.1346 36.9877H34.7352C37.6638 36.9877 39.8773 37.6461 41.3757 38.9628C42.8741 40.2796 43.6233 41.9709 43.6233 44.0369C43.6233 45.3764 43.2714 46.6364 42.5676 47.8169C41.8638 48.9747 40.7854 49.9169 39.3325 50.6434C37.8795 51.3699 36.0179 51.7331 33.7476 51.7331ZM51.4608 38.8607C50.3483 38.8607 49.338 38.6109 48.4299 38.1115C47.5218 37.5893 46.7953 36.8855 46.2505 36.0001C45.7283 35.1147 45.4672 34.1272 45.4672 33.0374C45.4672 31.9477 45.7283 30.9601 46.2505 30.0747C46.7953 29.1893 47.5218 28.4855 48.4299 27.9634C49.338 27.4412 50.3483 27.1801 51.4608 27.1801C52.5732 27.1801 53.5721 27.4412 54.4575 27.9634C55.3656 28.4855 56.0808 29.1893 56.6029 30.0747C57.1478 30.9601 57.4202 31.9477 57.4202 33.0374C57.4202 34.1272 57.1478 35.1147 56.6029 36.0001C56.0808 36.8628 55.3656 37.5553 54.4575 38.0774C53.5721 38.5996 52.5732 38.8607 51.4608 38.8607ZM51.4608 36.2385C52.051 36.2385 52.5845 36.1023 53.0613 35.8299C53.538 35.5347 53.9126 35.1488 54.1851 34.672C54.4575 34.1953 54.5937 33.6504 54.5937 33.0374C54.5937 32.4245 54.4575 31.8796 54.1851 31.4028C53.9126 30.9034 53.538 30.5174 53.0613 30.245C52.5845 29.9726 52.051 29.8364 51.4608 29.8364C50.8478 29.8364 50.3029 29.9726 49.8262 30.245C49.3494 30.5174 48.9748 30.892 48.7024 31.3688C48.4299 31.8455 48.2937 32.4018 48.2937 33.0374C48.2937 33.6504 48.4299 34.1953 48.7024 34.672C48.9748 35.1488 49.3494 35.5347 49.8262 35.8299C50.3029 36.1023 50.8478 36.2385 51.4608 36.2385Z" fill="white"/>
<defs>
<linearGradient id="paint0_linear_22_19" x1="39.1622" y1="0" x2="39.1622" y2="78.3243" gradientUnits="userSpaceOnUse">
<stop stop-color="#E29726"/>
<stop offset="1" stop-color="#E26A26"/>
</linearGradient>
</defs>
</svg>
