<svg width="119" height="20" viewBox="0 0 119 20" fill="none" xmlns="http://www.w3.org/2000/svg">
<path d="M10 0L12.9859 5.89019L19.5106 6.90983L14.8314 11.5698L15.8779 18.0902L10 15.08L4.12215 18.0902L5.16863 11.5698L0.489435 6.90983L7.01405 5.89019L10 0Z" fill="#EBBE4A"/>
<path d="M34.6154 0L37.6013 5.89019L44.126 6.90983L39.4468 11.5698L40.4932 18.0902L34.6154 15.08L28.7375 18.0902L29.784 11.5698L25.1048 6.90983L31.6294 5.89019L34.6154 0Z" fill="#EBBE4A"/>
<path d="M59.2308 0L62.2167 5.89019L68.7413 6.90983L64.0621 11.5698L65.1086 18.0902L59.2308 15.08L53.3529 18.0902L54.3994 11.5698L49.7202 6.90983L56.2448 5.89019L59.2308 0Z" fill="#EBBE4A"/>
<path d="M83.8462 0L86.8321 5.89019L93.3567 6.90983L88.6775 11.5698L89.724 18.0902L83.8462 15.08L77.9683 18.0902L79.0148 11.5698L74.3356 6.90983L80.8602 5.89019L83.8462 0Z" fill="#EBBE4A"/>
<path d="M108.462 0L111.447 5.89019L117.972 6.90983L113.293 11.5698L114.339 18.0902L108.462 15.08L102.584 18.0902L103.63 11.5698L98.951 6.90983L105.476 5.89019L108.462 0Z" fill="#EBBE4A"/>
</svg>
