<svg width="50" height="50" viewBox="0 0 50 50" fill="none" xmlns="http://www.w3.org/2000/svg">
<path d="M22 1.73205C23.8564 0.660254 26.1436 0.660254 28 1.73205L43.6506 10.7679C45.507 11.8397 46.6506 13.8205 46.6506 15.9641V34.0359C46.6506 36.1795 45.507 38.1603 43.6506 39.2321L28 48.2679C26.1436 49.3397 23.8564 49.3397 22 48.2679L6.34936 39.2321C4.49296 38.1603 3.34937 36.1795 3.34937 34.0359V15.9641C3.34937 13.8205 4.49296 11.8397 6.34937 10.7679L22 1.73205Z" fill="white"/>
<g clip-path="url(#clip0_24_28)">
<path d="M22 36.668C21.9991 35.8614 22.2644 35.0771 22.7546 34.4366C23.2448 33.7961 23.9326 33.3351 24.7114 33.1252C25.4901 32.9153 26.3164 32.9681 27.0621 33.2755C27.8078 33.5829 28.4313 34.1276 28.836 34.8253C31.6226 33.596 32.6666 31.6667 32.6666 28V24C32.6666 18.6773 29.6653 15 25 15C20.3346 15 17.3333 18.6787 17.3333 24V28.6667C17.333 28.9318 17.2275 29.1859 17.04 29.3734C16.8526 29.5608 16.5984 29.6663 16.3333 29.6667H15C14.0281 29.6656 13.0963 29.2791 12.4089 28.592C11.7215 27.9049 11.3347 26.9732 11.3333 26.0013V24.668C11.3344 23.6957 11.721 22.7636 12.4083 22.076C13.0957 21.3884 14.0277 21.0014 15 21H15.6373C16.6466 16.2387 20.1013 13 25 13C29.8986 13 33.352 16.2387 34.3613 21H34.9986C35.9707 21.0014 36.9025 21.3882 37.5898 22.0755C38.2771 22.7628 38.6639 23.6946 38.6653 24.6667V26C38.6643 26.9721 38.2776 27.9042 37.5902 28.5916C36.9028 29.279 35.9708 29.6656 34.9986 29.6667H34.5866C34.5352 31.2459 34.0054 32.7722 33.0673 34.0436C32.1292 35.3151 30.8271 36.2716 29.3333 36.7867C29.3176 37.7591 28.9162 38.6855 28.2174 39.362C27.5187 40.0385 26.5798 40.4097 25.6073 40.394C24.6349 40.3783 23.7085 39.9769 23.032 39.2781C22.3555 38.5793 21.9842 37.6405 22 36.668ZM24 36.668C24 36.9976 24.0977 37.3199 24.2809 37.594C24.464 37.868 24.7243 38.0817 25.0288 38.2078C25.3334 38.3339 25.6685 38.3669 25.9918 38.3026C26.3151 38.2383 26.6121 38.0796 26.8452 37.8465C27.0782 37.6134 27.237 37.3165 27.3013 36.9932C27.3656 36.6698 27.3326 36.3347 27.2064 36.0302C27.0803 35.7256 26.8667 35.4654 26.5926 35.2822C26.3185 35.0991 25.9963 35.0013 25.6666 35.0013C25.2247 35.0017 24.801 35.1774 24.4885 35.4899C24.176 35.8024 24.0003 36.2261 24 36.668ZM34.6666 27.668H34.9986C35.4408 27.668 35.8649 27.4924 36.1776 27.1799C36.4904 26.8674 36.6663 26.4435 36.6666 26.0013V24.668C36.6666 24.2259 36.4911 23.8018 36.1786 23.489C35.866 23.1762 35.4421 23.0004 35 23H34.6666V27.668ZM13.3333 24.668V26.0013C13.334 26.443 13.5099 26.8664 13.8223 27.1786C14.1348 27.4908 14.5583 27.6663 15 27.6667H15.3333V23H15C14.5578 23.0004 14.1339 23.1762 13.8214 23.489C13.5089 23.8018 13.3333 24.2259 13.3333 24.668Z" fill="#E26A26"/>
</g>
<defs>
<clipPath id="clip0_24_28">
<rect width="32" height="32" fill="white" transform="translate(9 10)"/>
</clipPath>
</defs>
</svg>
